<?xml version="1.0" encoding="UTF-8"?>
<svg width="600px" height="516px" viewBox="0 0 600 516" version="1.1" xmlns="http://www.w3.org/2000/svg" xmlns:xlink="http://www.w3.org/1999/xlink">
    <!-- Generator: Sketch 47.1 (45422) - http://www.bohemiancoding.com/sketch -->
    <title>logo/RJHead</title>
    <desc>Created with Sketch.</desc>
    <defs></defs>
    <g id="Business-Cards" stroke="none" stroke-width="1" fill="none" fill-rule="evenodd">
        <g id="Business-Cards-Front-3" transform="translate(-107.000000, -148.000000)" fill="#D0021B">
            <g id="logo/RJHeadRed" transform="translate(107.000000, 148.000000)">
                <path d="M528.370872,131.777415 C572.395745,154.693748 602.326508,209.83405 599.857903,272.326958 C597.406383,334.105856 564.007614,384.902595 519.11147,402.956857 C551.314374,375.560959 573.617234,327.288757 575.821041,271.162441 C578.067556,214.186113 559.019154,162.794366 528.370872,131.777415 Z M24.0665562,267.940894 C24.7242813,324.993724 46.3865002,374.787447 78.5894046,403.322362 C33.4626291,383.91658 0.772837267,331.241315 0.0126095508,268.680405 C-0.713450628,206.833506 29.9860821,153.495231 73.831575,131.930418 C43.1832936,161.842352 23.3661216,211.755078 24.0665562,267.940894 Z M498.833036,301.864888 C498.833036,167.19743 410.603911,58.0473437 301.805929,58.0473437 C192.999405,58.0473437 104.81299,167.19743 104.821532,301.864888 C104.821532,337.276402 110.98023,370.894391 121.956552,401.256832 C103.822131,362.980776 93.349781,318.465629 93.349781,270.890437 C93.349781,128.411366 186.678411,12.9031875 301.805929,12.9031875 C416.94199,12.9031875 510.279161,128.411366 510.279161,270.890437 C510.279161,318.465629 499.840978,363.006276 481.67239,401.256832 C492.682879,370.894391 498.833036,337.276402 498.833036,301.864888 Z M69.9450176,257.99575 C69.9450176,399.369805 162.590296,513.993971 276.812375,513.993971 C280.664765,513.993971 284.517155,513.840969 288.343919,513.585965 C279.127226,515.132987 269.688444,516 260.130075,516 C144.994014,516 51.6739267,400.491821 51.6739267,257.99575 C51.6739267,115.508179 144.994014,0 260.138617,0 C269.696986,0 279.127226,0.875512725 288.352461,2.43953546 C284.517155,2.17603163 280.673307,2.01452928 276.820917,2.01452928 C162.590296,2.01452928 69.9450176,116.604695 69.9450176,257.99575 Z M532.71015,257.99575 C532.71015,116.604695 440.116122,2.01452928 325.868418,2.01452928 C321.998944,2.01452928 318.146554,2.17603163 314.336874,2.43953546 C323.570651,0.875512725 332.975266,0 342.567802,0 C457.69532,0 551.006866,115.508179 551.006866,257.99575 C551.006866,400.491821 457.69532,516 342.567802,516 C332.975266,516 323.570651,515.132987 314.328332,513.585965 C318.138012,513.840969 321.990402,513.993971 325.859876,513.993971 C440.116122,513.993971 532.71015,399.369805 532.71015,257.99575 Z M300.832154,403.738868 C351.357401,403.738868 394.536627,383.644576 412.056032,355.245663 C399.345708,389.518162 354.372686,414.87403 300.832154,414.87403 C247.240371,414.87403 202.26735,389.509661 189.591193,355.245663 C207.093514,383.644576 250.264198,403.738868 300.832154,403.738868 Z" id="RJHead"></path>
            </g>
        </g>
    </g>
</svg>